<?xml version="1.0" encoding="UTF-8"?> <svg xmlns="http://www.w3.org/2000/svg" xmlns:xlink="http://www.w3.org/1999/xlink" version="1.1" id="Layer_1" x="0px" y="0px" width="500px" height="150px" viewBox="0 0 500 150" style="enable-background:new 0 0 500 150;" xml:space="preserve"> <style type="text/css"> .st0{fill-rule:evenodd;clip-rule:evenodd;} .st1{fill:#0FE69B;} </style> <path class="st0" d="M92.6,22.5c-4.7-3.3-11.5-3.8-17.9-2.2c-0.8,5.9,2.2,10.5,6.6,12.4c-1.4-2.4-1.9-5-1.8-7.4 C85.1,27.3,90.3,25.9,92.6,22.5 M102.9,34c-0.4,10.9,8.7,7.8,15.5,10.7c-1.4-1.6-2.8-3.1-4.1-4.7C109.6,38.4,105.6,36.5,102.9,34z M6.5,80.2c2.2-28,18.7-51.6,52.3-57c-7.2-1.5-15.6-1.5-22.5,0.1C48.4,14.1,63.1,8.6,78.7,8.6c11.7,0,22.5,3.2,31.5,8.7l-5.2,4.5 c7.2,3.9,15,9.8,20.9,17c-1.1,0.9-2.2,1.8-3.3,2.7c5.6,4.4,11.8,11.7,15.3,17.6c-2.4,1.5-6.4,2-9.8,2.1c1.6,1.5,3.9,2.5,6.6,2.9 c-3.4,6-7.9,9.8-13.6,11.2c0-0.8-2.9-6.1-13.1-6.3c3.3-0.9,9.8-1.4,15.2-0.5c-10-3.7-24.8-3.6-28,6.6c-1.5,4.8,1.5,9.8,10,10.5 c6.3,0.6,10.2,0,14.6-0.9c-3.8,7.7-13.5,16.2-29.3,15.8c1.3-1.5,2.4-3.4,3.2-5.6C78,90.5,71.8,85.3,71.6,76.8 c-0.2-8.9,8.6-16.5,25.8-18.4c-13.8-3.2-28.3-0.9-38.9,6.2c2-9.5,6-15.8,9.9-21.4c-23.6,13.6-30.9,46-15.4,68.7 C48.2,96.3,51.4,77,66.8,67.2c-5.4,16.6,2.6,29,13.8,34.9c13.7,7.2,35.8,6.8,50.6-0.2c-4.6,9.4-11.1,17.7-18.8,24.4 c-16.7,2.7-34.9-1.3-42.6-5.9c3.1,7.4,9.5,15.5,14.2,21.1c-31.8-0.2-49-19.5-51.9-31.7c-2.3,5.9-3.3,14.2-3.4,20.9 c-9.4-10-13.3-23.1-12.8-36.1c0.5-11.3,3.7-23.1,9.7-32.4C18.3,66.1,12.3,72,6.5,80.2z"></path> <path class="st1" d="M378.6,79.7h5.5c1.9,0,2.6,1.1,2.3,2.7L384,95.7c-0.3,1.4-1.2,2.3-2.7,2.3h-5.9L378.6,79.7z M474.8,57.4 l-6.7,37.4c-0.5,2.6-0.9,3.2-2.9,3.2h-3.5c-1.6,0-1.3-1.1-1.2-1.9l2.7-15l-14.5,3.4l-2.9,15.7c-1.4,7.6,3.6,11.6,9.8,11.6h14 c6.3,0,10.7-2.4,11.9-9.2l8.9-49L474.8,57.4z M491.2,50.4l2.2-11.9h-30.5l-4.6,11.9H491.2z M432.1,57.4l-6.7,37.4 c-0.5,2.6-0.9,3.2-2.9,3.2h-3.5c-1.6,0-1.3-1.1-1.2-1.9l2.7-15l-14.5,3.4l-2.9,15.7c-1.4,7.6,3.6,11.6,9.8,11.6h14 c6.3,0,10.7-2.4,11.9-9.2l8.9-49L432.1,57.4z M448.5,50.4l2.2-11.9h-30.5l-4.6,11.9H448.5z M383.4,111.9c6.3,0,12-2.2,13.4-9.8 l3.1-17c0.9-5.2,0-9.5-4.4-9.9c4.6-1.2,6.6-2.4,7.1-5.3l3.8-20.7c1.1-6.1-1.9-10.6-8.7-10.6h-29.1L364,50.4h1h23.7 c2.1,0,3.2,1.4,2.8,3.6l-1.9,10.1c-0.5,2.5-1.8,2.7-3.6,3.1l-5.5,1.3l2.7-14.9L368.9,57l-9.8,54.8H383.4z"></path> <path d="M208.2,87.5H222l2.1-11.6h-13.8l1.9-10.6H226l2.2-11.7h-27.3l-10.6,58.2h27.3l2.3-12.4H206L208.2,87.5z M263.6,53.7h-23.3 c-4.4,0-7,1.3-7.9,6.1L225,100c-1.5,8.5,3.9,11.9,10,11.9h17.9l2.3-12.4h-14.1c-1.9,0-2.7-0.8-2.3-2.9l5.3-29.3c0.3-1.6,0.9-2,2.3-2 h4.4h10.6L263.6,53.7z M282,64.3h3.4c1.3,0,1.7,0.7,1.5,1.7l-6.1,33.6c-0.2,1-0.9,1.6-2,1.6h-3.5c-1.1,0-1.6-0.6-1.4-1.6l6.2-33.7 C280.3,65,280.7,64.3,282,64.3z M275.4,53.7c-4.4,0-7,2.6-7.7,6.4l-7.8,43c-1,5.5,2.9,8.9,7.4,8.9h16c4.5,0,8.7-1.5,9.7-6.9l8-43.9 c0.7-3.8-1.9-7.4-6.1-7.4H275.4z M298.7,111.9h12.7l4.9-26l4.1,26h10.8l10.6-58.2h-13.1l-4.6,25.2l-3.3-25.2h-11.6L298.7,111.9z M362.6,53.7h-13.9l-10.6,58.2H352L362.6,53.7z M198.1,38.5h-28.5c-5,0-8,1.4-9,6.9l-9.5,53c-1.7,9.5,4.5,13.4,11.3,13.4h22.2 l2.7-13.9h-17.7c-2.1,0-3.3-0.9-2.9-3.2l7.6-42.3c0.3-1.6,0.9-2.1,2.5-2.1h5.2l-1.8,10l14.5-3.4L198.1,38.5z"></path> </svg> 