<?xml version="1.0" encoding="UTF-8"?> <svg xmlns="http://www.w3.org/2000/svg" xmlns:xlink="http://www.w3.org/1999/xlink" version="1.1" id="Layer_1" x="0px" y="0px" width="200px" height="200px" viewBox="0 0 200 200" style="enable-background:new 0 0 200 200;" xml:space="preserve"> <style type="text/css"> .st0{fill:#0042A3;} .st1{fill:#025BFF;} </style> <g> <path class="st0" d="M30.4,100c0-38.4,31.1-69.5,69.4-69.6l0,0h0.2h0.1h0.1h69.6C151.9,12.6,127.3,1.5,100,1.5 C45.6,1.5,1.5,45.6,1.5,100s44.1,98.5,98.5,98.5c14.9,0,28.9-3.3,41.5-9.1v-33.5c-11.6,8.6-25.9,13.7-41.5,13.7 C61.5,169.6,30.4,138.5,30.4,100z"></path> <g> <ellipse class="st1" cx="100" cy="100" rx="41.5" ry="41.5"></ellipse> <ellipse class="st1" cx="100" cy="100" rx="41.5" ry="41.5"></ellipse> <ellipse class="st1" cx="100" cy="100" rx="41.5" ry="41.5"></ellipse> </g> <g> <path class="st1" d="M156.1,58.9c7.8,10.6,12.6,23.4,13.3,37.3c0.1,1.3,0.1,2.5,0.1,3.8v69.7c17.8-17.8,28.9-42.5,28.9-69.7 c0-14.7-3.2-28.6-9-41.1L156.1,58.9L156.1,58.9z"></path> <path class="st1" d="M169.6,96.2v3.8c0-1.3-0.1-2.6-0.1-3.8H169.6z"></path> </g> </g> </svg> 